<svg width="116" height="55" viewBox="0 0 116 55" fill="none" xmlns="http://www.w3.org/2000/svg">
<mask id="mask0" mask-type="alpha" maskUnits="userSpaceOnUse" x="0" y="0" width="55" height="55">
<rect width="54.4586" height="54.4586" fill="#C4C4C4"/>
</mask>
<g mask="url(#mask0)">
<path d="M49.0718 26.1107L51.1624 23.3244H35.3575L26.9953 9.55414L19.1612 23.3244H3.34395L12.3957 38.741H15.6263L8.21153 26.1107H12.0602L19.0836 38.741H22.252L15.2504 26.1107H19.1675L26.0635 38.042L26.0728 38.0358L26.4859 38.7379H41.6509L47.4597 29.6364H36.7367L35.342 32.4227H42.3778L40.1257 35.9515H29.1107L35.342 26.1107H49.0718ZM25.641 31.7425L21.578 24.7129L25.641 17.5715V31.7425ZM28.4274 31.8232V17.2826L32.9346 24.7036L28.4274 31.8232Z" fill="#FFC52F"/>
<path d="M41.5266 41.779H12.2808V44.5654H41.5266V41.779Z" fill="#FFC52F"/>
</g>
<path d="M57.2964 36H59.7664V30.8L62.0804 34.336H62.1324L64.4594 30.774V36H66.9684V26.9H64.3034L62.1324 30.423L59.9614 26.9H57.2964V36ZM68.5826 36H75.9666V33.855H71.0786V32.412H75.4466V30.423H71.0786V29.045H75.9016V26.9H68.5826V36ZM81.831 36.182C83.482 36.182 84.821 35.571 85.783 34.778V30.683H81.597V32.529H83.391V33.634C83.014 33.881 82.546 34.011 81.935 34.011C80.492 34.011 79.465 32.958 79.465 31.489V31.463C79.465 30.072 80.479 28.967 81.792 28.967C82.689 28.967 83.339 29.279 83.989 29.825L85.471 28.044C84.509 27.212 83.378 26.718 81.779 26.718C78.958 26.718 76.878 28.798 76.878 31.45V31.476C76.878 34.232 78.997 36.182 81.831 36.182ZM91.7572 36.182C94.5652 36.182 96.6712 34.063 96.6712 31.45V31.424C96.6712 28.811 94.5912 26.718 91.7832 26.718C88.9752 26.718 86.8692 28.837 86.8692 31.45V31.476C86.8692 34.089 88.9492 36.182 91.7572 36.182ZM91.7832 33.907C90.4052 33.907 89.4562 32.763 89.4562 31.45V31.424C89.4562 30.111 90.3792 28.993 91.7572 28.993C93.1482 28.993 94.0972 30.137 94.0972 31.45V31.476C94.0972 32.789 93.1742 33.907 91.7832 33.907ZM97.9849 36H104.914V33.79H100.507V26.9H97.9849V36ZM105.996 36H109.454C112.73 36 114.641 34.05 114.641 31.424V31.398C114.641 28.772 112.756 26.9 109.506 26.9H105.996V36ZM108.518 33.764V29.136H109.545C111.053 29.136 112.054 29.981 112.054 31.437V31.463C112.054 32.932 111.053 33.764 109.545 33.764H108.518Z" fill="white"/>
</svg>
